<svg xmlns="http://www.w3.org/2000/svg" xmlns:xlink="http://www.w3.org/1999/xlink" width="512" zoomAndPan="magnify" viewBox="0 0 384 383.999986" height="512" preserveAspectRatio="xMidYMid meet" version="1.0"><defs><clipPath id="e4d2a09623"><path d="M 28.070312 26.914062 L 349.820312 26.914062 L 349.820312 348.664062 L 28.070312 348.664062 Z M 28.070312 26.914062 " clip-rule="nonzero"/></clipPath></defs><rect x="-38.4" width="460.8" fill="#ffffff" y="-38.399999" height="460.799983" fill-opacity="1"/><rect x="-38.4" width="460.8" fill="#ffffff" y="-38.399999" height="460.799983" fill-opacity="1"/><g clip-path="url(#e4d2a09623)"><path fill="#e55757" d="M 342.222656 181.015625 C 340.640625 179.835938 338.910156 178.941406 337.039062 178.328125 C 335.167969 177.710938 333.242188 177.410156 331.273438 177.417969 L 204.40625 177.417969 C 191.023438 177.257812 179.800781 184.867188 173.59375 196.542969 C 165.59375 209.554688 157.613281 222.566406 152.050781 235.707031 L 127.347656 143.476562 C 127.332031 143.445312 127.316406 143.429688 127.316406 143.394531 L 127.316406 143.363281 C 125.6875 136.238281 123.316406 131.542969 128.398438 126.175781 C 131.957031 122.601562 134.984375 118.625 137.480469 114.242188 C 139.976562 109.859375 141.855469 105.226562 143.117188 100.34375 C 150.117188 75.933594 137.683594 46.652344 115.707031 34.800781 C 88.859375 18.578125 51.175781 28.640625 35.957031 56.066406 C 22.734375 77.171875 26.667969 109.117188 44.90625 126.660156 C 52 133.851562 60.835938 139.074219 70.558594 141.671875 C 77.605469 143.75 77.945312 148.976562 80.074219 155.890625 C 80.074219 155.925781 80.089844 155.925781 80.105469 155.957031 L 80.105469 156.019531 L 80.410156 157.132812 C 83.394531 168.308594 108.191406 260.878906 108.210938 260.878906 C 109.175781 264.78125 110.402344 268.972656 112.417969 272.324219 C 114.402344 276.210938 121.222656 282.839844 126.460938 287.933594 L 131.429688 292.902344 C 131.5625 293.085938 131.71875 293.253906 131.894531 293.402344 C 133.136719 294.578125 135.636719 295.804688 137.957031 296.285156 C 135.332031 310.492188 131.105469 325.421875 119.898438 345.03125 C 118.835938 346.546875 120.042969 348.769531 121.882812 348.722656 L 272.949219 348.722656 C 273.378906 348.722656 273.777344 348.613281 274.148438 348.398438 C 274.515625 348.179688 274.804688 347.886719 275.015625 347.511719 C 300.589844 302.976562 290.753906 282.386719 306.167969 240.707031 C 308.828125 233.871094 312.085938 227.453125 315.695312 220.90625 L 337.511719 220.90625 C 350.6875 215.164062 354.78125 190.09375 342.222656 181.015625 Z M 112.03125 256.847656 L 90.714844 177.257812 C 102.902344 171.050781 115.480469 167.921875 128.75 167.082031 C 135.960938 193.945312 147.699219 237.804688 149.164062 243.238281 C 148.746094 244.445312 148.34375 245.65625 147.957031 246.832031 C 135.492188 247.960938 123.542969 251.121094 112.03125 256.847656 Z M 107.660156 142.234375 L 107.015625 142.332031 C 105.242188 142.65625 103.484375 143.007812 101.757812 143.476562 L 101.535156 143.542969 C 100.566406 143.800781 99.613281 144.121094 98.664062 144.429688 C 95.066406 132.171875 91.375 122.546875 87.730469 115.144531 C 91.796875 113.789062 95.753906 112.167969 99.597656 110.277344 C 100.519531 118.824219 104.242188 131.980469 107.660156 142.234375 Z M 114.253906 80.1875 C 123.445312 84.960938 115.320312 96.75 103.582031 102.875 C 103.015625 92.21875 105.144531 78.707031 114.253906 80.1875 Z M 86.570312 155.457031 C 87.296875 154.988281 88.023438 154.503906 88.746094 154.070312 C 89.472656 153.636719 90.230469 153.25 90.972656 152.84375 C 91.714844 152.441406 92.421875 152.054688 93.164062 151.714844 C 93.90625 151.378906 94.824219 150.957031 95.664062 150.605469 C 96.503906 150.25 97.050781 150.007812 97.746094 149.75 C 98.695312 149.394531 99.664062 149.089844 100.648438 148.78125 C 101.277344 148.589844 101.90625 148.363281 102.550781 148.203125 C 103.710938 147.878906 104.902344 147.621094 106.097656 147.378906 C 106.53125 147.28125 106.96875 147.167969 107.402344 147.089844 C 107.839844 147.007812 108.5 146.945312 109.046875 146.863281 C 110.191406 146.683594 111.335938 146.507812 112.53125 146.394531 C 113.289062 146.332031 114.078125 146.296875 114.851562 146.265625 C 115.933594 146.203125 117.011719 146.136719 118.125 146.121094 C 118.980469 146.121094 119.867188 146.152344 120.738281 146.1875 L 123.171875 146.28125 L 127.492188 162.390625 C 114.304688 163.34375 101.648438 166.484375 89.457031 172.550781 L 85.136719 156.425781 C 85.601562 156.085938 86.085938 155.761719 86.570312 155.457031 Z M 71.785156 137.089844 C 67.328125 135.882812 63.105469 134.113281 59.121094 131.78125 C 55.136719 129.449219 51.527344 126.632812 48.292969 123.335938 C 19.527344 94.476562 32.875 43.828125 72.703125 33.523438 C 112.304688 22.722656 148.988281 59.871094 138.523438 99.152344 C 137.371094 103.621094 135.65625 107.863281 133.371094 111.878906 C 131.085938 115.890625 128.316406 119.53125 125.058594 122.804688 C 119.449219 128.367188 120.125 134.367188 121.898438 141.414062 C 121.351562 141.378906 120.835938 141.414062 120.285156 141.398438 L 118.011719 141.398438 C 116.867188 141.414062 115.722656 141.460938 114.578125 141.527344 C 113.867188 141.558594 113.160156 141.589844 112.449219 141.65625 C 108.839844 130.964844 104.824219 116.695312 104.050781 108.035156 C 151.359375 82.480469 94.359375 50.730469 99.066406 105.277344 C 93.988281 107.84375 89.488281 109.679688 85.523438 110.953125 C 58.578125 61.96875 34.699219 127.5625 83.152344 116.484375 C 86.765625 123.722656 90.503906 133.414062 94.195312 146.089844 C 93.375 146.425781 92.550781 146.765625 91.730469 147.152344 C 90.90625 147.539062 90.519531 147.75 89.925781 148.054688 C 88.910156 148.570312 87.890625 149.105469 86.894531 149.683594 L 85.101562 150.765625 L 83.796875 151.554688 C 82.910156 148.492188 82.007812 145.878906 80.683594 143.652344 C 78.765625 140.429688 76.105469 138.238281 71.785156 137.089844 Z M 80.878906 112.210938 C 53.839844 118.9375 56.371094 91.425781 69.574219 98.84375 C 72.945312 100.890625 76.800781 105.035156 80.878906 112.210938 Z M 121.109375 275.875 C 117.011719 271.792969 114.609375 267.117188 113.289062 261.472656 C 123.914062 256.054688 134.960938 252.992188 146.472656 251.75 C 144.214844 259.605469 142.78125 266.761719 141.617188 273.601562 C 135.671875 274.878906 129.894531 276.695312 124.285156 279.050781 Z M 138.796875 291.578125 C 137.226562 291.359375 135.890625 290.679688 134.78125 289.546875 L 127.914062 282.660156 C 132.117188 281.007812 136.414062 279.664062 140.8125 278.628906 C 140.136719 283 139.507812 287.273438 138.796875 291.578125 Z M 291.511719 281.5 C 288.785156 299.738281 286.058594 317.957031 271.5625 343.964844 L 125.898438 343.964844 C 136.734375 324.230469 140.570312 309.152344 143.085938 294.640625 C 143.132812 294.472656 143.15625 294.300781 143.167969 294.125 C 144.199219 288.175781 145.003906 282.308594 146.003906 276.226562 C 146.046875 276.0625 146.074219 275.898438 146.085938 275.726562 C 147.828125 265.183594 150.148438 254.007812 155.097656 240.707031 C 160.46875 226.921875 169.0625 212.972656 177.65625 199.023438 C 182.945312 188.949219 192.28125 182.304688 203.777344 182.207031 C 206.292969 183.789062 208.179688 185.753906 209.46875 188.011719 C 214.46875 196.878906 211.582031 210.699219 203.390625 216.390625 C 202.976562 216.585938 202.644531 216.878906 202.398438 217.265625 C 202.15625 217.652344 202.035156 218.078125 202.035156 218.535156 C 202.035156 218.851562 202.097656 219.152344 202.21875 219.441406 C 202.335938 219.734375 202.507812 219.988281 202.730469 220.210938 C 202.953125 220.433594 203.210938 220.605469 203.5 220.726562 C 203.789062 220.84375 204.09375 220.90625 204.40625 220.90625 L 310.246094 220.90625 C 299.863281 239.433594 293.507812 263.34375 291.511719 281.5 Z M 336.867188 216.164062 L 210.566406 216.164062 C 217.789062 206.84375 219.417969 191.527344 211.066406 182.175781 L 331.273438 182.175781 C 348.945312 182.238281 348.058594 208.523438 336.867188 216.164062 Z M 45.179688 186.578125 C 22.492188 187.285156 22.492188 220.195312 45.179688 220.90625 C 67.867188 220.210938 67.867188 187.300781 45.179688 186.578125 Z M 36.40625 212.519531 C 25.167969 200.574219 42.003906 183.738281 53.96875 194.960938 C 65.191406 206.925781 48.355469 223.757812 36.40625 212.519531 Z M 107.0625 297.996094 L 94.988281 297.996094 C 91.875 297.996094 91.875 293.253906 94.988281 293.253906 L 107.0625 293.253906 C 107.378906 293.253906 107.679688 293.316406 107.972656 293.4375 C 108.261719 293.554688 108.519531 293.726562 108.742188 293.949219 C 108.960938 294.171875 109.132812 294.429688 109.253906 294.71875 C 109.375 295.007812 109.433594 295.3125 109.433594 295.625 C 109.433594 295.941406 109.375 296.242188 109.253906 296.53125 C 109.132812 296.824219 108.960938 297.078125 108.742188 297.300781 C 108.519531 297.523438 108.261719 297.695312 107.972656 297.816406 C 107.679688 297.9375 107.378906 297.996094 107.0625 297.996094 Z M 117.09375 307.394531 L 111.0625 317.859375 C 109.515625 320.523438 105.417969 318.183594 106.953125 315.492188 L 113 305.042969 C 113.152344 304.769531 113.355469 304.539062 113.605469 304.347656 C 113.851562 304.15625 114.128906 304.019531 114.429688 303.9375 C 114.734375 303.855469 115.039062 303.835938 115.351562 303.875 C 115.660156 303.917969 115.953125 304.015625 116.222656 304.171875 C 116.496094 304.328125 116.726562 304.53125 116.917969 304.777344 C 117.109375 305.027344 117.246094 305.300781 117.324219 305.601562 C 117.40625 305.90625 117.429688 306.210938 117.386719 306.523438 C 117.347656 306.832031 117.25 307.125 117.09375 307.394531 Z M 168.820312 152.894531 C 173.59375 141.089844 185.832031 127.804688 198.632812 113.890625 C 219.402344 91.347656 241.6875 67.128906 233.785156 47.390625 C 227.140625 30.816406 204.390625 27.21875 191.296875 37.136719 C 182.316406 43.910156 183.800781 59 195.152344 62.917969 C 198.214844 64.097656 201.777344 64.53125 204.566406 63.046875 C 206.421875 62.03125 207.664062 60 207.664062 56.761719 C 207.636719 56.429688 207.675781 56.105469 207.785156 55.789062 C 207.894531 55.472656 208.0625 55.191406 208.285156 54.949219 C 208.511719 54.703125 208.777344 54.511719 209.082031 54.378906 C 209.390625 54.246094 209.707031 54.179688 210.042969 54.179688 C 210.375 54.179688 210.695312 54.246094 211 54.378906 C 211.304688 54.511719 211.570312 54.703125 211.796875 54.949219 C 212.023438 55.191406 212.191406 55.472656 212.300781 55.789062 C 212.40625 56.105469 212.449219 56.429688 212.421875 56.761719 C 212.613281 67.789062 201.828125 70.867188 193.425781 67.335938 C 178.769531 62.144531 176.414062 42.492188 188.316406 33.460938 C 203.792969 21.59375 230.300781 25.964844 238.1875 45.632812 C 252.585938 80.65625 186.347656 123.578125 173.222656 154.683594 C 172.078125 157.488281 167.644531 155.828125 168.820312 152.894531 Z M 327.175781 84.253906 C 337.207031 79.542969 350.347656 83.734375 349.800781 96.910156 C 349.765625 100.039062 345.058594 100.023438 345.042969 96.910156 C 345.589844 87.234375 336.109375 85.398438 329.160156 88.558594 C 319.019531 93.25 314.230469 109.839844 309.601562 125.867188 C 303.894531 145.621094 298.410156 164.582031 282.65625 163.230469 C 279.578125 162.9375 279.917969 158.277344 283.042969 158.488281 C 294.945312 159.503906 299.894531 142.378906 305.054688 124.546875 C 309.972656 107.503906 315.066406 89.847656 327.175781 84.253906 Z M 203.101562 142.832031 C 199.746094 145.878906 198.570312 150.054688 201.292969 154.085938 C 205.082031 159.699219 218.226562 161.328125 214.871094 150.765625 C 214.082031 147.75 218.644531 146.539062 219.464844 149.539062 C 222.144531 158.148438 216.5625 164.277344 208.550781 163.148438 C 196.28125 161.875 190.136719 147.75 199.925781 139.316406 C 216.855469 124.351562 243.492188 143.992188 247.585938 163.019531 C 248.183594 166.050781 243.589844 167.003906 242.945312 163.953125 C 241.105469 155.261719 233.125 146.507812 225.53125 141.992188 C 217.484375 137.414062 209.308594 137.703125 203.101562 142.832031 Z M 242.523438 109.90625 L 251.117188 112.824219 C 255.519531 114.308594 258.664062 117.453125 260.164062 121.855469 L 263.066406 130.449219 C 263.679688 132.5625 266.9375 132.59375 267.566406 130.449219 C 269.03125 126.59375 270.675781 119.015625 273.886719 116.242188 C 276.691406 113.019531 284.191406 111.390625 288.109375 109.90625 C 290.203125 109.292969 290.234375 106.050781 288.109375 105.421875 C 284.238281 103.957031 276.675781 102.277344 273.886719 99.085938 C 270.675781 96.265625 269.03125 88.800781 267.566406 84.882812 C 266.953125 82.785156 263.695312 82.738281 263.066406 84.882812 C 261.597656 88.71875 259.9375 96.34375 256.730469 99.085938 C 253.941406 102.296875 246.425781 103.957031 242.523438 105.421875 C 242.039062 105.578125 241.644531 105.863281 241.34375 106.277344 C 241.042969 106.691406 240.890625 107.152344 240.890625 107.664062 C 240.890625 108.175781 241.042969 108.636719 241.34375 109.050781 C 241.644531 109.464844 242.039062 109.75 242.523438 109.90625 Z M 265.308594 93.023438 L 265.96875 94.976562 C 268.097656 101.570312 273.355469 105.890625 279.949219 107.664062 C 272.53125 109.566406 267.210938 114.886719 265.308594 122.304688 C 263.40625 114.886719 258.085938 109.566406 250.667969 107.664062 C 258.066406 105.761719 263.40625 100.441406 265.308594 93.023438 Z M 287.109375 47.957031 C 296.636719 40.378906 312.4375 35.992188 322.308594 42.570312 C 330.933594 47.328125 335.53125 59.257812 327.03125 66.449219 C 324.679688 68.464844 321.597656 64.902344 323.9375 62.871094 C 329.886719 57.761719 325.710938 49.890625 319.890625 46.652344 C 311.421875 41.070312 298.054688 45.394531 289.945312 51.761719 C 286.125 54.617188 282.933594 58.019531 281.140625 61.613281 C 281.003906 61.894531 280.8125 62.136719 280.578125 62.34375 C 280.339844 62.550781 280.070312 62.703125 279.773438 62.804688 C 279.476562 62.902344 279.171875 62.941406 278.859375 62.921875 C 278.542969 62.898438 278.246094 62.816406 277.964844 62.679688 C 273.175781 59.855469 284.0625 50.246094 287.109375 47.957031 Z M 176.058594 118.710938 C 181.253906 110.421875 196.441406 78.851562 184.863281 82.109375 C 181.863281 82.914062 180.640625 78.335938 183.636719 77.527344 C 204.761719 73.949219 187.539062 108.550781 180.171875 121.082031 C 178.625 123.742188 174.527344 121.417969 176.058594 118.710938 Z M 176.058594 118.710938 " fill-opacity="1" fill-rule="evenodd"/></g></svg>