<svg xmlns="http://www.w3.org/2000/svg" xmlns:xlink="http://www.w3.org/1999/xlink" width="512" zoomAndPan="magnify" viewBox="0 0 384 383.999986" height="512" preserveAspectRatio="xMidYMid meet" version="1.0"><defs><clipPath id="fc3dcb7d8b"><path d="M 32.144531 29.570312 L 354.644531 29.570312 L 354.644531 351.992188 L 32.144531 351.992188 Z M 32.144531 29.570312 " clip-rule="nonzero"/></clipPath></defs><rect x="-38.4" width="460.8" fill="#ffffff" y="-38.399999" height="460.799983" fill-opacity="1"/><rect x="-38.4" width="460.8" fill="#ffffff" y="-38.399999" height="460.799983" fill-opacity="1"/><g clip-path="url(#fc3dcb7d8b)"><path fill="#a884f5" d="M 293.960938 326.054688 L 294.71875 325.957031 C 349.40625 320.363281 374.917969 252.582031 334.890625 212.652344 C 332.632812 210.296875 330.183594 208.25 327.632812 206.332031 C 328.117188 172.078125 315.328125 138.808594 292.203125 113.664062 L 307.070312 113.664062 C 310.183594 113.648438 310.167969 108.925781 307.070312 108.910156 L 286.882812 108.910156 C 286.460938 108.863281 286.058594 108.929688 285.671875 109.101562 C 285.25 109.296875 284.925781 109.597656 284.703125 110.003906 C 284.554688 110.207031 284.441406 110.425781 284.367188 110.667969 C 284.292969 110.90625 284.261719 111.152344 284.273438 111.402344 C 284.28125 111.65625 284.335938 111.898438 284.429688 112.128906 C 284.519531 112.363281 284.652344 112.574219 284.816406 112.761719 L 284.945312 112.925781 C 308.925781 136.886719 322.441406 169.222656 322.875 203.023438 C 297.460938 187.316406 262.03125 190.476562 240.742188 212.621094 C 202.714844 250.550781 223.824219 313.605469 272.898438 324.636719 C 274.191406 324.941406 275.480469 325.199219 276.785156 325.410156 L 277.300781 325.492188 C 280.582031 326.015625 283.882812 326.289062 287.203125 326.3125 L 287.816406 326.3125 L 288.929688 326.265625 C 289.929688 326.25 290.914062 326.199219 291.914062 326.136719 Z M 313.085938 316.21875 C 311.992188 316.703125 310.894531 317.152344 309.765625 317.574219 L 308.863281 317.910156 C 307.78125 318.296875 306.667969 318.667969 305.554688 318.992188 L 304.652344 319.25 C 303.492188 319.574219 302.332031 319.863281 301.167969 320.121094 L 300.410156 320.265625 C 299.167969 320.523438 297.910156 320.75 296.636719 320.925781 L 296.414062 320.960938 C 290.671875 321.738281 284.929688 321.738281 279.1875 320.960938 L 278.996094 320.925781 C 277.722656 320.75 276.449219 320.523438 275.171875 320.265625 L 274.480469 320.121094 C 273.285156 319.863281 272.109375 319.574219 270.949219 319.25 L 270.09375 319.007812 C 268.964844 318.667969 267.835938 318.296875 266.722656 317.894531 L 265.882812 317.589844 C 264.738281 317.167969 263.609375 316.703125 262.515625 316.203125 L 261.949219 315.945312 C 259.382812 314.769531 256.921875 313.402344 254.5625 311.847656 C 257.871094 300.171875 263.238281 290.929688 275.65625 288.527344 C 277.238281 293.785156 282.074219 297.640625 287.816406 297.640625 C 293.558594 297.640625 298.378906 293.785156 299.976562 288.527344 C 312.394531 290.929688 317.765625 300.171875 321.054688 311.847656 C 318.707031 313.394531 316.253906 314.753906 313.699219 315.929688 Z M 320.585938 298.125 C 319.644531 296.457031 318.570312 294.882812 317.359375 293.398438 C 313.363281 288.59375 307.976562 285.175781 300.574219 283.804688 L 300.574219 279.351562 C 302.8125 278.144531 304.828125 276.640625 306.621094 274.835938 C 311.28125 270.222656 314.152344 263.871094 314.136719 256.550781 L 314.085938 245.984375 C 314.121094 244.484375 312.667969 243.339844 311.214844 243.664062 C 295.574219 247 280.042969 247.148438 264.417969 243.664062 C 264.242188 243.625 264.066406 243.609375 263.886719 243.609375 C 263.707031 243.613281 263.53125 243.636719 263.355469 243.675781 C 263.183594 243.71875 263.015625 243.78125 262.855469 243.859375 C 262.695312 243.9375 262.546875 244.035156 262.40625 244.148438 C 262.269531 244.261719 262.144531 244.386719 262.035156 244.527344 C 261.925781 244.667969 261.832031 244.820312 261.757812 244.984375 C 261.679688 245.144531 261.625 245.3125 261.585938 245.488281 C 261.546875 245.664062 261.527344 245.839844 261.53125 246.019531 L 261.496094 256.550781 C 261.367188 267.03125 267.191406 274.980469 275.058594 279.160156 L 275.058594 283.804688 C 264.835938 285.675781 258.402344 291.558594 254.207031 299.558594 L 254.207031 246.792969 C 254.210938 244.613281 254.425781 242.457031 254.855469 240.324219 C 255.28125 238.1875 255.914062 236.113281 256.753906 234.105469 C 257.589844 232.09375 258.613281 230.183594 259.828125 228.375 C 261.042969 226.566406 262.421875 224.894531 263.964844 223.359375 C 275.914062 210.523438 298.878906 210.539062 310.828125 223.359375 C 312.375 224.894531 313.753906 226.566406 314.96875 228.375 C 316.183594 230.183594 317.210938 232.089844 318.046875 234.101562 C 318.882812 236.113281 319.515625 238.1875 319.945312 240.320312 C 320.371094 242.457031 320.585938 244.613281 320.585938 246.792969 Z M 287.816406 277.835938 C 275.914062 277.53125 266.207031 268.742188 266.238281 256.550781 L 266.269531 248.90625 C 280.625 251.710938 295.023438 251.613281 309.347656 248.890625 L 309.378906 256.550781 C 309.410156 268.742188 299.71875 277.53125 287.816406 277.835938 Z M 279.832031 281.125 C 284.960938 282.738281 290.558594 282.898438 295.832031 281.320312 C 295.894531 284.707031 295.816406 288.609375 293.445312 290.527344 C 288.703125 295.527344 279.6875 291.851562 279.832031 284.882812 Z M 244.113281 216.023438 C 264.804688 194.507812 299.847656 192.285156 323.570312 209.25 C 323.628906 209.304688 323.695312 209.351562 323.761719 209.394531 C 326.550781 211.363281 329.128906 213.570312 331.503906 216.023438 C 359.855469 244.277344 352.792969 287.5625 325.359375 308.863281 L 325.359375 246.792969 C 325.359375 244.300781 325.113281 241.835938 324.625 239.394531 C 324.136719 236.949219 323.414062 234.578125 322.460938 232.28125 C 321.503906 229.980469 320.332031 227.796875 318.945312 225.726562 C 317.558594 223.660156 315.980469 221.746094 314.214844 219.988281 C 300.378906 205.296875 274.414062 205.296875 260.59375 219.988281 C 258.828125 221.746094 257.25 223.65625 255.863281 225.726562 C 254.476562 227.792969 253.300781 229.976562 252.347656 232.277344 C 251.390625 234.578125 250.667969 236.949219 250.179688 239.390625 C 249.695312 241.835938 249.449219 244.300781 249.449219 246.792969 L 249.449219 308.21875 C 222.679688 286.722656 216.050781 244.003906 244.113281 216.023438 Z M 63.6875 171.609375 C 63.800781 171.796875 63.941406 171.964844 64.105469 172.109375 C 64.347656 172.371094 64.636719 172.5625 64.972656 172.683594 C 65.308594 172.804688 65.65625 172.839844 66.007812 172.785156 L 66.058594 172.785156 L 66.21875 172.738281 C 66.582031 172.683594 66.910156 172.542969 67.203125 172.320312 C 67.496094 172.097656 67.714844 171.816406 67.863281 171.480469 C 67.9375 171.351562 68.003906 171.214844 68.058594 171.078125 C 69.132812 167.058594 70.402344 163.101562 71.863281 159.207031 C 73.320312 155.3125 74.960938 151.496094 76.789062 147.757812 C 78.613281 144.019531 80.617188 140.378906 82.792969 136.832031 C 84.96875 133.289062 87.3125 129.855469 89.820312 126.539062 C 92.324219 123.21875 94.988281 120.027344 97.800781 116.964844 C 100.617188 113.902344 103.570312 110.980469 106.667969 108.203125 C 109.761719 105.421875 112.984375 102.800781 116.332031 100.332031 C 119.679688 97.863281 123.140625 95.5625 126.710938 93.425781 C 125.710938 128.261719 152.367188 162.417969 193.28125 162.625 C 252.660156 162.320312 282.042969 90.507812 240.355469 48.917969 C 215.441406 23.015625 171.125 23.015625 146.207031 48.917969 C 134.839844 60.269531 128.789062 73.863281 127.160156 87.652344 C 123.488281 89.730469 119.921875 91.972656 116.460938 94.382812 C 113 96.796875 109.660156 99.363281 106.441406 102.089844 C 103.222656 104.816406 100.140625 107.6875 97.191406 110.703125 C 94.242188 113.71875 91.441406 116.867188 88.789062 120.144531 C 86.136719 123.425781 83.644531 126.824219 81.3125 130.335938 C 78.980469 133.851562 76.816406 137.46875 74.824219 141.183594 C 72.832031 144.902344 71.019531 148.707031 69.386719 152.59375 C 67.75 156.484375 66.304688 160.441406 65.042969 164.464844 L 57.605469 151.578125 C 57.449219 151.308594 57.246094 151.074219 56.992188 150.882812 C 56.742188 150.691406 56.464844 150.554688 56.160156 150.476562 C 55.855469 150.394531 55.546875 150.375 55.234375 150.417969 C 54.921875 150.457031 54.628906 150.558594 54.359375 150.71875 C 54.085938 150.875 53.851562 151.078125 53.660156 151.332031 C 53.46875 151.582031 53.335938 151.859375 53.253906 152.164062 C 53.171875 152.46875 53.152344 152.777344 53.195312 153.089844 C 53.238281 153.402344 53.335938 153.695312 53.496094 153.964844 Z M 160.027344 148.113281 C 163.335938 136.4375 168.703125 127.210938 181.121094 124.808594 C 182.71875 130.050781 187.554688 133.90625 193.28125 133.921875 C 199.007812 133.9375 203.859375 130.050781 205.441406 124.808594 C 217.859375 127.210938 223.230469 136.453125 226.535156 148.113281 C 224.179688 149.671875 221.71875 151.035156 219.148438 152.207031 L 218.566406 152.484375 C 217.472656 152.964844 216.359375 153.433594 215.230469 153.855469 L 214.359375 154.175781 C 213.246094 154.5625 212.132812 154.933594 211.003906 155.273438 L 210.132812 155.515625 C 208.972656 155.835938 207.796875 156.128906 206.617188 156.386719 L 205.910156 156.53125 C 204.652344 156.789062 203.375 157.015625 202.101562 157.191406 L 201.910156 157.222656 C 196.152344 158 190.394531 158 184.636719 157.222656 L 184.476562 157.191406 C 183.1875 157.015625 181.914062 156.789062 180.636719 156.53125 L 179.960938 156.386719 C 178.765625 156.144531 177.574219 155.835938 176.414062 155.515625 L 175.574219 155.273438 C 174.425781 154.941406 173.296875 154.570312 172.1875 154.160156 L 171.347656 153.871094 C 170.21875 153.433594 169.089844 152.964844 167.980469 152.46875 L 167.429688 152.226562 C 164.859375 151.039062 162.394531 149.667969 160.027344 148.113281 Z M 169.847656 97.070312 C 166.15625 99.652344 162.964844 94.828125 163.15625 91.105469 C 163.117188 90.425781 163.175781 89.753906 163.335938 89.089844 C 163.363281 89.011719 163.382812 88.929688 163.398438 88.847656 C 164.367188 85.25 167.980469 82.445312 170.832031 86.121094 C 171.023438 86.371094 171.257812 86.578125 171.53125 86.734375 C 171.804688 86.894531 172.097656 86.992188 172.410156 87.035156 C 172.726562 87.074219 173.035156 87.054688 173.339844 86.972656 C 173.644531 86.890625 173.921875 86.75 174.171875 86.558594 C 175.234375 85.667969 175.234375 84.652344 174.785156 83.6875 C 176.292969 83.035156 177.609375 82.105469 178.726562 80.902344 C 179.847656 79.699219 180.679688 78.320312 181.21875 76.769531 C 185.105469 78.171875 190.3125 76.785156 193.457031 73.574219 C 196.28125 77.121094 201.3125 79.21875 205.265625 78.429688 C 206.023438 80.121094 209.230469 84.507812 212.117188 86.1875 C 212.925781 87.058594 214.277344 87.378906 215.34375 86.460938 L 215.488281 86.347656 C 215.550781 86.265625 215.648438 86.21875 215.730469 86.121094 C 218.761719 82.203125 222.648438 85.621094 223.324219 89.523438 C 223.328125 89.632812 223.339844 89.738281 223.359375 89.847656 C 223.414062 90.265625 223.429688 90.683594 223.40625 91.105469 C 223.390625 94.183594 221.875 97.605469 218.792969 97.8125 C 218.015625 97.800781 217.324219 97.554688 216.714844 97.070312 C 214.421875 95.363281 211.890625 98.425781 213.441406 100.378906 C 206.730469 118.34375 179.832031 118.34375 173.125 100.378906 C 174.671875 98.425781 172.140625 95.363281 169.847656 97.070312 Z M 226.019531 83.832031 C 224.390625 81.394531 221.921875 79.671875 218.792969 79.621094 C 216.941406 79.636719 215.230469 80.332031 213.777344 81.445312 C 211.957031 79.914062 209.828125 77.605469 209.390625 76.011719 C 209.570312 74.363281 209.84375 72.347656 207.214844 72.332031 C 206.101562 72.203125 205.410156 72.625 204.988281 73.589844 C 202.117188 74.703125 196.972656 71.945312 196.070312 68.609375 C 195.714844 66.367188 192.3125 66.027344 191.539062 68.1875 C 190.265625 71.347656 185.507812 73.414062 182.574219 72.21875 C 181.6875 71.945312 180.6875 70.65625 179.507812 70.703125 C 177.976562 70.671875 176.976562 72.042969 177.074219 73.492188 C 177.011719 74.351562 176.792969 75.167969 176.421875 75.945312 C 176.054688 76.722656 175.554688 77.402344 174.929688 77.992188 C 174.214844 78.664062 173.398438 79.164062 172.472656 79.492188 C 171.550781 79.824219 170.601562 79.949219 169.625 79.878906 C 166.527344 79.136719 163.238281 80.378906 161.15625 82.960938 C 159.367188 76.671875 161.769531 69.285156 167.460938 65.753906 C 168.105469 65.320312 168.460938 64.71875 168.527344 63.945312 C 168.609375 62.996094 168.777344 62.058594 169.035156 61.140625 C 169.292969 60.21875 169.632812 59.332031 170.054688 58.472656 C 170.476562 57.617188 170.972656 56.808594 171.546875 56.042969 C 172.121094 55.28125 172.757812 54.574219 173.464844 53.929688 C 174.167969 53.285156 174.925781 52.710938 175.738281 52.207031 C 176.550781 51.703125 177.402344 51.28125 178.292969 50.9375 C 179.183594 50.589844 180.097656 50.332031 181.039062 50.15625 C 181.976562 49.984375 182.925781 49.898438 183.878906 49.902344 C 185.484375 49.890625 187.054688 50.132812 188.582031 50.625 C 190.113281 51.113281 191.527344 51.832031 192.828125 52.769531 C 193.199219 53.027344 193.609375 53.171875 194.058594 53.199219 C 194.507812 53.230469 194.929688 53.140625 195.328125 52.933594 C 203.730469 48.949219 214.40625 54.0625 216.570312 63.058594 C 216.761719 63.789062 217.203125 64.3125 217.890625 64.625 C 225.179688 67.71875 228.519531 76.621094 226.019531 83.832031 Z M 201.265625 117.617188 L 201.265625 121.164062 C 201.410156 128.148438 192.394531 131.824219 187.636719 126.808594 C 185.25 124.859375 185.1875 120.890625 185.265625 117.472656 C 190.425781 119.066406 196.054688 119.179688 201.265625 117.617188 Z M 149.578125 52.289062 C 172.71875 28.226562 213.84375 28.226562 236.984375 52.289062 C 265.402344 80.621094 258.222656 124.066406 230.613281 145.289062 C 228.824219 139.386719 226.4375 133.984375 222.824219 129.664062 C 218.828125 124.859375 213.441406 121.4375 206.039062 120.085938 L 206.039062 115.617188 C 207.152344 115.015625 208.210938 114.328125 209.214844 113.554688 C 211.117188 112.148438 212.789062 110.507812 214.230469 108.632812 C 215.671875 106.757812 216.828125 104.722656 217.699219 102.523438 C 223.308594 103.296875 228.519531 97.3125 228.179688 91.105469 C 228.179688 90.75 228.132812 90.394531 228.097656 90.054688 C 234.886719 80.574219 231.371094 65.945312 220.859375 60.785156 C 217.601562 50.046875 204.988281 43.917969 194.476562 48.144531 C 182.636719 40.402344 165.542969 48.417969 163.914062 62.414062 C 157.191406 67.253906 154.078125 76.476562 156.578125 84.460938 C 157.078125 85.667969 157.65625 87.636719 158.542969 89.074219 C 157.753906 95.28125 161.078125 102.472656 167.769531 102.570312 C 168.105469 102.570312 168.4375 102.542969 168.769531 102.488281 C 170.976562 108.261719 175.285156 112.683594 180.523438 115.457031 L 180.523438 120.066406 C 166.589844 122.617188 159.722656 132.664062 155.914062 145.273438 C 128.339844 124.035156 121.179688 80.621094 149.578125 52.289062 Z M 227.519531 329.8125 C 227.289062 329.78125 227.066406 329.792969 226.839844 329.84375 C 194.828125 338.539062 159.769531 334.214844 130.789062 318.167969 C 167.089844 298.15625 179.058594 245.808594 145.820312 212.652344 C 120.90625 186.734375 76.589844 186.753906 51.671875 212.652344 C 13.660156 250.582031 34.773438 313.636719 83.828125 324.667969 C 85.121094 324.976562 86.425781 325.214844 87.730469 325.441406 L 88.230469 325.523438 C 91.519531 326.039062 94.824219 326.316406 98.148438 326.34375 L 98.746094 326.34375 C 99.132812 326.34375 99.503906 326.3125 99.875 326.296875 C 100.859375 326.28125 101.859375 326.234375 102.84375 326.167969 L 104.890625 326.039062 L 105.648438 325.941406 C 112.617188 325.257812 119.300781 323.503906 125.710938 320.683594 C 125.824219 320.808594 125.945312 320.921875 126.082031 321.023438 C 151.5625 335.78125 181.621094 341.761719 210.828125 337.875 C 215.328125 337.28125 219.777344 336.394531 224.164062 335.359375 L 216.859375 348.375 C 216.703125 348.648438 216.609375 348.945312 216.570312 349.257812 C 216.535156 349.570312 216.558594 349.878906 216.644531 350.179688 C 216.726562 350.484375 216.867188 350.761719 217.0625 351.007812 C 217.257812 351.253906 217.492188 351.457031 217.769531 351.609375 C 218.042969 351.765625 218.335938 351.859375 218.652344 351.898438 C 218.964844 351.933594 219.273438 351.910156 219.574219 351.824219 C 219.878906 351.738281 220.152344 351.597656 220.402344 351.402344 C 220.648438 351.207031 220.851562 350.972656 221.003906 350.695312 L 231.003906 332.910156 C 232.339844 330.507812 229.308594 328.457031 227.519531 329.8125 Z M 124.015625 316.21875 C 122.929688 316.703125 121.835938 317.152344 120.726562 317.574219 L 119.792969 317.910156 C 118.710938 318.296875 117.613281 318.667969 116.503906 318.992188 L 115.582031 319.25 C 114.433594 319.574219 113.269531 319.863281 112.097656 320.121094 L 111.359375 320.265625 C 110.101562 320.523438 108.839844 320.75 107.582031 320.925781 L 107.324219 320.960938 C 101.59375 321.738281 95.863281 321.738281 90.132812 320.960938 L 89.925781 320.925781 C 88.652344 320.75 87.378906 320.523438 86.121094 320.265625 L 85.410156 320.121094 C 84.230469 319.863281 83.054688 319.574219 81.894531 319.25 L 81.023438 319.007812 C 79.894531 318.667969 78.78125 318.296875 77.667969 317.910156 L 76.8125 317.589844 C 75.683594 317.152344 74.554688 316.703125 73.460938 316.203125 L 72.878906 315.945312 C 70.316406 314.769531 67.859375 313.402344 65.507812 311.847656 C 68.800781 300.171875 74.167969 290.929688 86.601562 288.527344 C 89.988281 300.476562 107.519531 300.476562 110.90625 288.527344 C 123.324219 290.929688 128.695312 300.171875 132 311.847656 C 129.652344 313.394531 127.199219 314.753906 124.644531 315.929688 Z M 75.3125 260.804688 C 71.621094 263.386719 68.429688 258.566406 68.621094 254.839844 C 68.316406 250.386719 72.863281 245.421875 76.3125 249.855469 C 76.503906 250.105469 76.738281 250.308594 77.007812 250.464844 C 77.28125 250.621094 77.574219 250.722656 77.886719 250.761719 C 78.195312 250.800781 78.503906 250.78125 78.808594 250.699219 C 79.109375 250.621094 79.386719 250.484375 79.636719 250.292969 C 82.085938 248.242188 79.105469 245.484375 77.183594 244.421875 C 77.105469 239.632812 77.054688 237.472656 84.328125 237.472656 C 93.945312 238.328125 103.5625 238.328125 113.179688 237.472656 C 117.226562 237.472656 120.277344 238.164062 120.277344 241.339844 L 120.277344 244.453125 C 119.160156 245.097656 118.207031 245.933594 117.421875 246.953125 C 115.535156 249.421875 119.277344 252.308594 121.179688 249.855469 C 124.628906 245.421875 129.160156 250.40625 128.855469 254.839844 C 128.902344 258.179688 126.773438 262.339844 123.210938 261.371094 C 121.742188 260.546875 120.195312 259.582031 118.855469 261.273438 C 118.699219 261.484375 118.582031 261.714844 118.5 261.964844 C 118.421875 262.214844 118.386719 262.46875 118.394531 262.730469 C 118.402344 262.992188 118.449219 263.246094 118.542969 263.492188 C 118.636719 263.738281 118.769531 263.960938 118.9375 264.160156 C 114.824219 275.59375 100.390625 280.722656 89.652344 275.867188 C 89.492188 275.765625 89.324219 275.679688 89.152344 275.609375 C 87.894531 275.019531 86.71875 274.300781 85.621094 273.449219 C 84.015625 272.269531 82.617188 270.886719 81.421875 269.296875 C 80.222656 267.707031 79.28125 265.976562 78.589844 264.113281 C 80.136719 262.160156 77.605469 259.097656 75.3125 260.804688 Z M 85.957031 213.25 C 103.761719 208.070312 128.484375 213.523438 128.402344 235.824219 C 128.421875 238.625 128.113281 241.386719 127.484375 244.117188 C 126.699219 243.773438 125.882812 243.558594 125.03125 243.46875 L 125.03125 241.339844 C 125.273438 231.214844 113.46875 232.519531 106.035156 233.117188 C 96.554688 235.550781 72.265625 226.761719 72.476562 241.339844 L 72.476562 243.421875 C 71.609375 243.511719 70.773438 243.730469 69.976562 244.082031 C 66.894531 231.035156 71.894531 217.230469 85.957031 213.25 Z M 106.761719 281.238281 C 106.84375 284.65625 106.761719 288.59375 104.390625 290.527344 C 99.632812 295.558594 90.617188 291.882812 90.761719 284.898438 L 90.761719 281.238281 C 93.375 282.007812 96.039062 282.394531 98.761719 282.394531 C 101.484375 282.394531 104.152344 282.007812 106.761719 281.238281 Z M 55.042969 216.023438 C 78.183594 191.960938 119.308594 191.960938 142.449219 216.023438 C 170.867188 244.355469 163.6875 287.800781 136.078125 309.027344 C 134.289062 303.125 131.902344 297.703125 128.289062 293.382812 C 124.292969 288.59375 118.90625 285.175781 111.503906 283.804688 L 111.503906 279.253906 C 116.550781 276.609375 120.742188 272.273438 123.144531 266.242188 C 128.757812 267.03125 134 261.046875 133.644531 254.839844 C 133.660156 252.195312 132.941406 249.773438 131.484375 247.566406 C 138.417969 224.375 123.4375 205.765625 98.746094 206.832031 C 87.3125 206.523438 75.75 210.3125 69.574219 219.085938 C 63.765625 227.070312 63.21875 237.808594 66.007812 247.519531 C 61.476562 253.839844 64.460938 266.175781 73.234375 266.304688 C 73.605469 266.296875 73.976562 266.265625 74.347656 266.207031 C 76.734375 272.257812 80.941406 276.609375 85.988281 279.253906 L 85.988281 283.804688 C 72.054688 286.351562 65.203125 296.398438 61.398438 308.992188 C 33.804688 287.753906 26.644531 244.355469 55.042969 216.023438 Z M 55.042969 216.023438 " fill-opacity="1" fill-rule="evenodd"/></g></svg>