<svg xmlns="http://www.w3.org/2000/svg" xmlns:xlink="http://www.w3.org/1999/xlink" width="512" zoomAndPan="magnify" viewBox="0 0 384 383.999986" height="512" preserveAspectRatio="xMidYMid meet" version="1.0"><defs><clipPath id="cfb257b2eb"><path d="M 30.242188 109 L 348.992188 109 L 348.992188 358.433594 L 30.242188 358.433594 Z M 30.242188 109 " clip-rule="nonzero"/></clipPath><clipPath id="0b551a01c5"><path d="M 132 30.683594 L 247 30.683594 L 247 291 L 132 291 Z M 132 30.683594 " clip-rule="nonzero"/></clipPath></defs><rect x="-38.4" width="460.8" fill="#ffffff" y="-38.399999" height="460.799983" fill-opacity="1"/><rect x="-38.4" width="460.8" fill="#ffffff" y="-38.399999" height="460.799983" fill-opacity="1"/><g clip-path="url(#cfb257b2eb)"><path fill="#54a189" d="M 187.597656 324.011719 C 196.023438 301.988281 212.15625 287.449219 230.601562 274.953125 C 241.292969 267.714844 252.621094 261.4375 262.890625 253.554688 C 264.425781 252.375 264.996094 251.234375 264.992188 249.347656 C 264.953125 225.699219 264.988281 202.054688 265.019531 178.40625 C 265.03125 167.484375 267.230469 157.136719 273.03125 147.714844 C 279.238281 137.628906 287.972656 132.289062 300.046875 133.375 C 301.988281 133.550781 302.390625 132.710938 302.777344 131.183594 C 304.679688 123.714844 308.644531 117.59375 315.140625 113.347656 C 321.339844 109.292969 327.976562 108.796875 334.53125 112.261719 C 341.046875 115.710938 344.632812 121.417969 344.824219 128.789062 C 345.074219 138.398438 344.917969 148.023438 344.875 157.644531 C 344.867188 159.007812 345.128906 160.132812 345.949219 161.25 C 347.839844 163.816406 348.882812 166.785156 348.894531 169.941406 C 348.941406 185.972656 349.292969 202.003906 348.703125 218.027344 C 348.203125 231.691406 343.449219 244.269531 338.078125 256.601562 C 329.371094 276.605469 320.960938 296.757812 311.535156 316.421875 C 298.695312 343.203125 276.597656 357.054688 247.140625 357.574219 C 208.875 358.246094 170.585938 358.074219 132.3125 357.625 C 107.25 357.332031 86.785156 347.136719 72.113281 326.320312 C 69.089844 322.03125 67.015625 317.261719 64.929688 312.488281 C 55.714844 291.402344 45.9375 270.558594 37.210938 249.257812 C 32.441406 237.617188 30.0625 225.558594 30.234375 212.941406 C 30.417969 199.316406 30.375 185.683594 30.238281 172.058594 C 30.160156 164.550781 33.421875 159.171875 39.902344 155.730469 C 41.503906 154.878906 41.605469 153.824219 41.601562 152.382812 C 41.589844 144.265625 41.398438 136.144531 41.679688 128.035156 C 42.0625 117.097656 51.332031 109.007812 61.988281 110.273438 C 69.605469 111.179688 74.9375 115.734375 78.816406 122.113281 C 80.542969 124.953125 81.675781 128.066406 82.351562 131.320312 C 82.601562 132.53125 82.949219 133.214844 84.433594 133.222656 C 100.429688 133.320312 108.34375 143.429688 113.398438 156.890625 C 115.964844 163.734375 116.535156 170.910156 116.523438 178.175781 C 116.492188 201.824219 116.585938 225.472656 116.484375 249.117188 C 116.472656 251.851562 117.425781 253.449219 119.492188 255.078125 C 130.445312 263.691406 142.40625 270.898438 153.371094 279.480469 C 166.039062 289.390625 177.222656 300.597656 184.035156 315.496094 C 185.234375 318.121094 186.269531 320.820312 187.597656 324.011719 Z M 190.007812 349.457031 C 190.007812 349.445312 190.007812 349.433594 190.007812 349.421875 C 209.148438 349.421875 228.300781 349.894531 247.421875 349.308594 C 273.636719 348.503906 293.039062 336.289062 304.246094 312.300781 C 312.035156 295.628906 319.242188 278.679688 326.652344 261.828125 C 329.3125 255.785156 331.929688 249.71875 334.339844 243.574219 C 338.449219 233.117188 340.4375 222.273438 340.292969 210.988281 C 340.125 197.964844 340.285156 184.9375 340.324219 171.910156 C 340.347656 164.558594 336.292969 161.246094 329.117188 162.824219 C 323.28125 164.113281 319.542969 168.0625 316.675781 172.941406 C 312.207031 180.542969 310.199219 188.839844 310.160156 197.628906 C 310.128906 204.042969 310.160156 210.453125 310.15625 216.867188 C 310.152344 222.664062 308.128906 227.273438 303.003906 230.535156 C 298.191406 233.597656 293.742188 237.21875 289.527344 241.078125 C 277.414062 252.175781 265.378906 263.335938 251.125 271.785156 C 243.292969 276.429688 235.707031 281.488281 228.261719 286.753906 C 209.527344 299.996094 195.933594 316.816406 191.09375 339.777344 C 190.59375 342.148438 189.332031 343.621094 186.792969 343.46875 C 184.101562 343.308594 183.101562 341.472656 182.75 339.046875 C 180.175781 321.332031 171.386719 307 158.621094 294.84375 C 151.628906 288.1875 143.851562 282.53125 135.851562 277.1875 C 120.675781 267.042969 105.960938 256.347656 93.007812 243.363281 C 88.054688 238.398438 82.585938 233.933594 76.726562 230.082031 C 71.53125 226.671875 69.585938 221.980469 69.605469 216.085938 C 69.628906 209.273438 69.644531 202.457031 69.59375 195.644531 C 69.535156 187.683594 67.621094 180.152344 63.761719 173.203125 C 60.902344 168.050781 56.972656 163.941406 50.878906 162.777344 C 43.292969 161.332031 38.5 164.859375 38.675781 172.425781 C 38.992188 185.945312 38.96875 199.480469 38.714844 213.003906 C 38.496094 224.730469 40.546875 235.945312 45.1875 246.65625 C 53.65625 266.210938 62.25 285.710938 70.871094 305.199219 C 73.699219 311.59375 76.21875 318.171875 80.601562 323.761719 C 94.058594 340.929688 111.835938 349.277344 133.492188 349.429688 C 152.332031 349.5625 171.171875 349.457031 190.007812 349.457031 Z M 273.367188 244.515625 C 281.738281 236.699219 289.824219 229.535156 298.710938 223.34375 C 299.835938 222.558594 300.25 221.683594 300.25 220.363281 C 300.246094 194.816406 300.253906 169.277344 300.328125 143.734375 C 300.332031 141.914062 299.613281 141.664062 298.035156 141.582031 C 290.984375 141.222656 285.65625 144.164062 281.636719 149.789062 C 277.167969 156.046875 274.808594 163.09375 273.855469 170.660156 C 272.996094 177.449219 273.40625 184.269531 273.386719 191.074219 C 273.335938 208.679688 273.367188 226.285156 273.367188 244.515625 Z M 108.140625 245.855469 C 108.140625 240.421875 108.148438 235.820312 108.136719 231.214844 C 108.097656 211.585938 108.214844 191.953125 107.933594 172.328125 C 107.8125 163.847656 105.105469 155.984375 99.859375 149.171875 C 96.125 144.316406 91.386719 141.339844 85.003906 141.460938 C 83.421875 141.492188 82.6875 141.761719 82.6875 143.589844 C 82.714844 169.632812 82.671875 195.671875 82.636719 221.714844 C 82.632812 222.753906 82.742188 223.648438 83.6875 224.339844 C 92.253906 230.605469 100.007812 237.804688 108.140625 245.855469 Z M 74.652344 176.222656 C 74.652344 162.785156 74.828125 150.023438 74.574219 137.273438 C 74.457031 131.285156 72.066406 125.949219 67.496094 121.875 C 64.113281 118.863281 60.164062 117.703125 55.824219 119.554688 C 51.527344 121.386719 49.914062 125.082031 49.859375 129.476562 C 49.765625 136.980469 49.878906 144.488281 49.820312 151.992188 C 49.808594 153.460938 50.195312 154 51.726562 154.289062 C 59.660156 155.777344 65.46875 160.378906 69.894531 166.976562 C 71.714844 169.695312 72.898438 172.738281 74.652344 176.222656 Z M 310.199219 165.972656 C 310.988281 166.210938 311.109375 165.761719 311.335938 165.46875 C 317.28125 157.84375 324.675781 153.171875 334.753906 154.175781 C 336.589844 154.359375 336.378906 153.320312 336.378906 152.207031 C 336.386719 144.710938 336.40625 137.210938 336.40625 129.710938 C 336.402344 125.476562 334.695312 122.0625 330.992188 120 C 327.03125 117.792969 323.046875 118.390625 319.378906 120.871094 C 314.070312 124.464844 311.214844 129.707031 310.589844 135.910156 C 309.582031 145.933594 310.398438 156.003906 310.199219 165.972656 Z M 310.199219 165.972656 " fill-opacity="1" fill-rule="evenodd"/></g><g clip-path="url(#0b551a01c5)"><path fill="#54a189" d="M 190.957031 217.761719 C 193.328125 215.164062 194.054688 212.914062 194.007812 210.109375 C 193.875 202.796875 196.882812 196.71875 202.144531 191.71875 C 208.835938 185.363281 217.15625 182.289062 225.886719 180.121094 C 228.375 179.503906 230.539062 181.199219 230.585938 183.859375 C 230.941406 203.421875 219.824219 216.480469 202.273438 219.027344 C 199.265625 219.464844 197.675781 220.679688 196.066406 223.191406 C 191.972656 229.574219 190.445312 236.246094 190.71875 243.875 C 191.214844 257.890625 190.847656 271.933594 190.894531 285.960938 C 190.902344 287.867188 190.382812 289.316406 188.53125 290.03125 C 187.0625 290.601562 185.765625 290.136719 184.644531 289.148438 C 183.425781 288.078125 183.671875 286.601562 183.671875 285.214844 C 183.671875 270.480469 183.636719 255.75 183.726562 241.015625 C 183.742188 238.617188 183.214844 236.542969 182.058594 234.46875 C 180.058594 230.886719 178.1875 227.234375 176.363281 223.558594 C 175.6875 222.195312 174.832031 221.515625 173.28125 221.148438 C 154.398438 216.648438 144.777344 204.644531 144.289062 185.144531 C 144.160156 179.976562 145.886719 178.589844 150.84375 179.828125 C 158.921875 181.839844 166.363281 185.03125 172.558594 190.824219 C 179.261719 197.09375 181.449219 204.847656 180.605469 213.722656 C 180.214844 217.792969 180.394531 218.28125 183.734375 222.257812 C 183.734375 221.085938 183.734375 220.246094 183.734375 219.410156 C 183.726562 211.992188 183.085938 204.511719 183.867188 197.179688 C 184.921875 187.261719 180.457031 179.382812 176.199219 171.253906 C 175.628906 170.164062 174.769531 169.789062 173.632812 169.476562 C 148.363281 162.523438 133.472656 143.671875 132.511719 117.433594 C 132.382812 113.933594 132.34375 110.417969 132.453125 106.914062 C 132.546875 103.882812 134.363281 102.402344 137.195312 103.082031 C 149.417969 106.003906 160.511719 111.144531 169.109375 120.585938 C 179.191406 131.65625 182.136719 144.949219 179.9375 159.417969 C 179.351562 163.257812 181.03125 165.542969 183.007812 168.226562 C 183.96875 167.113281 183.585938 165.96875 183.589844 164.941406 C 183.644531 146.800781 183.652344 128.664062 183.683594 110.523438 C 183.683594 109.210938 183.757812 108.175781 182.089844 107.46875 C 166.082031 100.679688 159.230469 87.871094 158.824219 71.128906 C 158.46875 56.453125 163.894531 43.753906 172.796875 32.359375 C 174.226562 30.527344 176.074219 30.144531 177.761719 31.636719 C 190.796875 43.148438 201.003906 56.304688 201.953125 74.613281 C 202.492188 85.011719 199.074219 94.113281 192.519531 102.085938 C 191.308594 103.554688 190.789062 105.03125 190.796875 106.96875 C 190.882812 128.613281 190.878906 150.261719 190.898438 171.910156 C 190.898438 172.757812 190.898438 173.609375 191.542969 174.625 C 193.300781 171.675781 195.0625 168.730469 196.808594 165.773438 C 197.257812 165.011719 197.007812 164.195312 196.84375 163.425781 C 191.035156 136.25 206.113281 113.695312 230.363281 103.160156 C 234.125 101.527344 238.011719 100.179688 242.011719 99.210938 C 244.878906 98.515625 246.621094 99.652344 246.78125 102.46875 C 247.765625 120.054688 244.359375 136.40625 232.796875 150.289062 C 225.152344 159.46875 215.625 165.84375 203.859375 168.546875 C 202.464844 168.867188 201.609375 169.527344 200.9375 170.785156 C 197.867188 176.523438 194.699219 182.203125 191.585938 187.917969 C 191.308594 188.429688 190.984375 189.015625 190.980469 189.566406 C 190.945312 198.738281 190.957031 207.910156 190.957031 217.761719 Z M 189.195312 94.996094 C 192.726562 90.070312 194.660156 85.179688 194.992188 79.804688 C 196.011719 63.386719 187.871094 51.144531 176.695312 40.339844 C 175.347656 39.03125 175.046875 40.441406 174.558594 41.152344 C 171.011719 46.335938 168.6875 52.089844 167.171875 58.128906 C 164.605469 68.339844 164.800781 78.386719 169.835938 87.925781 C 172.789062 93.519531 177.25 97.566406 183.222656 100.644531 C 181.617188 92.3125 180.105469 84.460938 178.601562 76.609375 C 177.90625 72.96875 177.222656 69.328125 176.546875 65.6875 C 176.128906 63.445312 176.691406 61.523438 179.058594 60.964844 C 181.570312 60.371094 182.664062 62.082031 183.144531 64.273438 C 183.335938 65.15625 183.507812 66.039062 183.679688 66.925781 C 185.472656 76.046875 187.265625 85.167969 189.195312 94.996094 Z M 203.78125 161.71875 C 204.230469 161.609375 204.625 161.554688 204.992188 161.421875 C 229.171875 152.613281 239.972656 131.246094 240.160156 109.25 C 240.179688 107.011719 239 107.679688 237.882812 108.035156 C 230.253906 110.472656 223.359375 114.253906 217.429688 119.652344 C 208.851562 127.460938 203.511719 136.976562 202.3125 149.359375 C 204.554688 146.644531 206.398438 144.441406 208.210938 142.214844 C 212.882812 136.46875 217.519531 130.695312 222.214844 124.972656 C 223.476562 123.433594 225.085938 122.601562 226.894531 124.066406 C 228.742188 125.554688 228.921875 127.421875 227.539062 129.367188 C 226.902344 130.261719 226.195312 131.109375 225.507812 131.964844 C 218.417969 140.773438 211.34375 149.59375 204.207031 158.359375 C 203.398438 159.359375 203.269531 160.265625 203.78125 161.71875 Z M 139.34375 110.929688 C 139.34375 112.269531 139.292969 113.363281 139.351562 114.457031 C 139.484375 116.855469 139.539062 119.265625 139.855469 121.644531 C 142.351562 140.441406 151.816406 154.011719 169.738281 161.125 C 170.6875 161.5 171.9375 162.726562 172.914062 161.410156 C 173.78125 160.242188 172.816406 159.207031 172.066406 158.21875 C 164.976562 148.894531 158.105469 139.40625 150.707031 130.320312 C 148.765625 127.9375 148.828125 126.171875 150.828125 124.648438 C 153.101562 122.910156 154.648438 124.089844 156.105469 125.953125 C 160.722656 131.875 165.378906 137.765625 170.050781 143.644531 C 171.039062 144.890625 171.875 146.324219 173.4375 147.292969 C 172.398438 130.050781 158.792969 116.816406 139.34375 110.929688 Z M 152.070312 187.351562 C 150.992188 198.988281 160.558594 211.503906 171.816406 213.703125 C 173.078125 213.949219 173.664062 213.804688 173.660156 212.367188 C 173.660156 209.867188 173.789062 207.363281 173.03125 204.933594 C 169.808594 194.597656 161.160156 190.878906 152.070312 187.351562 Z M 223.078125 188.289062 C 217.070312 190.1875 211.585938 192.46875 207.109375 196.691406 C 203.332031 200.253906 200.996094 204.527344 200.601562 209.800781 C 200.464844 211.667969 200.910156 212.226562 202.914062 211.886719 C 214.363281 209.941406 222.554688 200.613281 223.078125 188.289062 Z M 223.078125 188.289062 " fill-opacity="1" fill-rule="evenodd"/></g></svg>